<?xml version="1.0" standalone="no"?>
<!DOCTYPE svg PUBLIC "-//W3C//DTD SVG 20010904//EN"
 "http://www.w3.org/TR/2001/REC-SVG-20010904/DTD/svg10.dtd">
<svg version="1.0" xmlns="http://www.w3.org/2000/svg"
 width="240.000000pt" height="240.000000pt" viewBox="0 0 240.000000 240.000000"
 preserveAspectRatio="xMidYMid meet">
<metadata>
Created by potrace 1.14, written by Peter Selinger 2001-2017
</metadata>
<g transform="translate(0.000000,240.000000) scale(0.100000,-0.100000)"
fill="#000000" stroke="none">
<path d="M1200 2348 c-19 -6 -43 -17 -52 -25 -9 -8 -22 -12 -28 -8 -15 9 -100
-32 -100 -49 0 -7 9 -21 20 -31 11 -10 20 -27 20 -38 0 -11 5 -35 12 -53 6
-17 8 -39 4 -49 -6 -16 -8 -17 -24 -1 -23 20 -28 20 -36 0 -7 -17 38 -64 62
-64 21 0 65 -50 68 -79 1 -13 7 -28 13 -34 14 -14 14 -44 0 -53 -6 -3 -15 -1
-19 6 -6 9 -11 8 -18 -7 -17 -32 -10 -64 16 -74 13 -5 26 -18 29 -29 3 -11 9
-18 13 -15 11 7 40 -5 40 -15 0 -5 -8 -6 -19 -3 -10 3 -22 0 -25 -6 -4 -7 1
-11 14 -11 12 0 28 -7 36 -15 12 -12 13 -19 3 -37 -11 -20 -10 -21 2 -11 10 8
29 10 52 6 23 -3 37 -2 37 5 0 6 -6 12 -12 15 -10 3 -10 7 -2 18 7 8 10 31 8
52 -2 25 1 37 10 37 7 0 22 11 34 25 18 20 20 29 12 51 -6 15 -16 24 -24 21
-7 -3 -17 -2 -23 1 -14 10 -24 70 -13 77 6 3 10 17 10 31 0 13 4 24 10 24 5 0
14 10 21 21 9 18 7 25 -10 43 -18 18 -24 19 -42 8 -18 -12 -21 -11 -26 6 -4
17 -9 19 -36 11 -40 -11 -37 -12 -37 6 0 11 11 15 39 15 46 0 57 18 46 80 -6
36 -4 41 19 51 46 22 54 9 52 -84 l-2 -84 44 -18 c24 -10 62 -20 85 -22 40 -5
43 -3 54 28 13 34 6 48 -24 49 -7 0 -20 11 -28 24 -19 29 -9 56 30 82 14 9 25
20 25 24 0 16 -62 70 -80 70 -10 0 -22 4 -25 10 -7 12 -60 2 -99 -18 -28 -14
-31 -13 -50 10 -27 32 -43 37 -86 26z"/>
<path d="M744 2255 c-4 -8 -16 -15 -28 -15 -29 0 -73 -75 -56 -96 8 -8 21 -12
35 -8 16 4 27 -1 38 -17 18 -25 14 -39 -12 -39 -19 0 -61 -40 -61 -58 0 -15
22 -16 37 -1 8 8 17 8 31 0 15 -8 29 -8 48 -1 34 13 52 7 63 -22 10 -27 -3
-48 -29 -48 -21 0 -54 -35 -46 -48 3 -5 22 -13 42 -16 76 -15 141 -76 80 -76
-16 0 -26 -6 -26 -15 0 -9 -9 -15 -23 -15 -63 0 -76 -57 -17 -76 23 -8 36 -19
38 -33 2 -13 11 -21 24 -21 11 0 18 -5 16 -12 -5 -16 -48 -23 -48 -9 0 5 -15
13 -33 16 -29 6 -33 10 -30 30 8 38 -36 27 -58 -14 -18 -33 -17 -60 0 -32 7
11 15 10 45 -4 44 -21 46 -30 5 -21 -25 5 -32 2 -36 -14 -6 -24 -44 -49 -69
-46 -10 2 -24 12 -29 23 -6 11 -15 18 -21 16 -7 -2 -15 4 -18 14 -10 24 29 56
57 47 20 -6 20 -5 6 17 -20 31 -30 71 -21 85 4 6 15 14 26 17 17 7 17 9 -8 41
-14 19 -26 44 -26 55 0 11 -4 31 -9 44 -8 19 -15 23 -35 20 -15 -3 -26 -1 -26
6 0 6 -11 11 -24 11 -13 0 -29 7 -36 15 -10 12 -16 13 -27 4 -10 -9 -17 -9
-25 -1 -17 17 -36 15 -85 -9 -51 -25 -73 -53 -73 -94 0 -49 11 -56 107 -72 22
-3 30 -9 26 -19 -7 -18 46 -39 61 -24 23 23 86 0 86 -33 0 -8 -12 -19 -27 -24
-17 -6 -27 -17 -28 -31 -1 -12 2 -22 7 -22 5 0 6 -4 3 -10 -3 -5 -13 -10 -21
-10 -11 0 -13 6 -9 21 5 15 3 20 -6 17 -21 -7 -33 -57 -20 -82 10 -17 9 -28
-3 -51 -9 -17 -16 -36 -16 -42 0 -7 -2 -13 -5 -13 -5 0 -48 25 -64 37 -3 2 6
13 18 24 25 23 44 66 37 84 -2 7 -25 18 -50 25 -51 14 -77 38 -81 74 -4 30
-13 46 -26 46 -19 0 -89 -63 -89 -80 0 -10 -7 -23 -15 -30 -16 -13 -20 -57 -7
-76 7 -10 33 -16 139 -31 68 -9 84 -52 28 -73 -14 -5 -25 -16 -25 -25 0 -21
-7 -19 -50 15 -21 17 -47 30 -58 30 -12 0 -28 13 -41 35 -11 19 -24 35 -28 35
-4 0 -26 -15 -48 -34 -38 -32 -39 -36 -40 -94 0 -77 13 -93 58 -70 19 9 54 15
87 14 49 -1 56 -4 68 -28 7 -16 18 -28 25 -28 7 -1 26 -19 42 -40 34 -45 52
-48 89 -19 29 23 47 19 27 -5 -7 -8 -12 -28 -10 -43 2 -27 -1 -40 -22 -91 -5
-13 -7 -33 -4 -45 7 -28 -15 -60 -36 -52 -29 11 -57 78 -64 153 -7 73 -10 78
-34 63 -9 -6 -10 -11 -2 -15 6 -4 11 -21 11 -37 0 -22 -6 -32 -24 -39 -32 -12
-84 3 -103 30 -8 11 -20 20 -28 20 -24 0 -57 -59 -61 -108 -3 -56 9 -82 41
-82 13 0 27 -5 31 -11 4 -6 19 -9 36 -5 27 5 29 4 26 -22 -2 -18 -8 -26 -18
-23 -46 12 -55 7 -61 -39 -4 -25 -3 -49 2 -55 5 -5 9 -18 9 -30 0 -11 7 -29
15 -39 8 -11 15 -39 15 -62 0 -28 5 -44 15 -48 8 -3 15 -13 15 -23 1 -19 61
-63 86 -63 8 0 20 14 26 30 11 34 27 35 43 3 6 -12 17 -28 24 -37 11 -13 11
-20 -3 -41 -31 -48 5 -125 58 -125 8 0 28 -8 46 -17 30 -17 32 -17 45 1 10 12
11 25 5 42 -10 25 2 44 40 64 20 10 50 4 50 -11 0 -5 14 -16 31 -25 l31 -16
-23 -21 c-13 -12 -27 -21 -32 -19 -16 5 -47 -19 -47 -37 0 -10 9 -26 20 -36
11 -10 20 -24 20 -32 0 -9 8 -13 21 -11 33 5 48 -26 25 -51 -18 -20 -18 -21
14 -61 17 -22 35 -38 40 -35 5 3 15 -2 23 -10 12 -11 25 -13 54 -7 36 8 38 10
45 56 4 27 11 53 16 58 9 9 62 -9 62 -22 0 -4 9 -10 20 -13 26 -7 26 -32 0
-54 -28 -25 -25 -37 18 -70 35 -27 53 -31 124 -25 24 3 32 36 29 130 -2 64 0
82 11 82 8 0 20 -6 27 -12 10 -11 15 -10 24 3 9 11 23 14 50 11 20 -2 37 -7
37 -11 0 -3 -12 -24 -25 -46 -14 -22 -25 -49 -25 -61 0 -11 -7 -29 -15 -40
-21 -27 -19 -32 19 -48 49 -20 95 -21 139 -2 46 20 48 44 6 75 -25 18 -29 28
-25 47 5 17 0 33 -13 50 -19 24 -19 26 -3 55 17 30 17 30 -10 50 -30 22 -38
65 -15 88 10 11 8 12 -9 7 -25 -8 -41 19 -24 39 8 9 8 15 0 20 -5 3 -10 3 -10
-1 0 -4 -8 2 -18 14 -13 15 -22 18 -29 11 -8 -8 -17 -7 -33 1 -16 9 -25 9 -36
-1 -11 -9 -14 -8 -14 5 0 21 -6 20 -41 -5 -16 -11 -34 -17 -39 -14 -6 4 -28 4
-49 0 -31 -5 -38 -10 -34 -25 6 -21 -16 -38 -27 -20 -4 7 -16 9 -28 5 -13 -4
-40 2 -68 14 -26 12 -53 21 -60 21 -8 0 -23 9 -35 21 -23 23 -69 19 -69 -6 0
-8 -4 -15 -10 -15 -5 0 -10 22 -10 49 0 57 -10 69 -35 41 -26 -29 -37 -14 -31
43 5 45 4 50 -8 35 -7 -10 -15 -15 -19 -12 -9 9 -64 -24 -71 -42 -5 -12 -10
-14 -17 -7 -7 7 -7 16 1 29 9 16 4 34 -29 104 -29 62 -37 88 -29 97 7 9 14 10
23 3 9 -8 14 -6 19 5 8 21 26 19 26 -4 0 -21 27 -36 33 -18 5 17 34 -8 54 -47
10 -18 18 -26 21 -18 2 7 -4 24 -13 38 -19 29 -17 69 5 69 8 0 19 -15 24 -33
6 -21 14 -31 23 -28 8 3 13 -2 13 -12 0 -16 11 -3 36 46 3 6 -4 20 -17 31 -20
16 -21 21 -10 35 19 22 8 41 -24 44 -32 2 -55 18 -55 38 0 8 -5 23 -12 33 -9
14 -9 26 -1 43 6 13 8 38 6 56 -7 45 13 40 25 -7 7 -31 7 -38 -4 -34 -17 6
-16 -53 3 -68 7 -6 13 -19 13 -27 0 -13 3 -13 12 -4 10 10 10 17 0 33 -17 26
-6 88 12 69 8 -10 8 -14 -1 -17 -22 -8 -15 -36 7 -30 27 7 55 -16 46 -39 -4
-10 -4 -15 0 -11 4 4 13 2 21 -5 24 -20 26 0 4 45 -25 51 -26 64 -7 48 11 -9
15 -9 18 0 6 17 28 2 28 -18 0 -10 -6 -13 -16 -9 -15 6 -15 4 -2 -16 8 -13 15
-35 16 -51 1 -21 -3 -27 -18 -27 -11 0 -20 -7 -20 -15 0 -8 5 -15 10 -15 6 0
10 -7 10 -15 0 -8 -4 -15 -10 -15 -5 0 -10 7 -10 15 0 19 -7 19 -26 1 -19 -19
-18 -23 7 -29 16 -4 19 -11 14 -26 -4 -14 -2 -21 7 -21 8 0 6 -4 -4 -11 -25
-14 -22 -38 5 -48 12 -5 25 -7 29 -5 3 2 18 -9 31 -26 14 -16 35 -30 46 -30
15 0 20 -5 17 -17 -14 -67 -21 -84 -42 -98 -24 -15 -24 -16 -7 -40 10 -13 24
-22 31 -20 8 3 16 -4 19 -16 4 -12 11 -18 20 -15 8 3 17 6 19 6 2 0 4 8 4 18
0 15 7 18 38 16 20 -1 37 -3 37 -4 0 -8 75 -8 80 0 10 17 38 12 31 -6 -4 -10
-1 -14 6 -12 16 6 23 67 9 81 -7 7 -14 2 -21 -18 -6 -15 -12 -26 -13 -24 -2 2
-11 17 -21 32 -17 28 -17 29 3 22 12 -3 21 -2 21 2 0 5 7 18 16 29 14 17 15
17 10 1 -5 -15 -2 -16 14 -7 12 6 20 21 20 35 0 13 5 27 10 30 6 3 10 0 10 -7
0 -10 3 -9 10 2 5 8 12 11 17 7 4 -5 -1 -16 -13 -25 -11 -9 -26 -30 -34 -45
-12 -25 -12 -29 5 -45 10 -9 15 -11 11 -5 -8 15 10 18 19 4 9 -16 48 -8 52 10
3 11 12 15 24 12 20 -6 26 11 8 23 -6 3 -9 15 -6 25 4 14 0 19 -13 19 -10 0
-17 6 -16 15 3 23 13 27 33 17 13 -7 23 -6 36 3 9 7 28 10 42 8 19 -4 25 0 29
18 7 40 5 69 -5 69 -5 0 -9 -4 -9 -10 0 -19 -19 -10 -26 13 -4 12 -11 25 -16
28 -6 4 -7 17 -3 30 l8 24 8 -22 c9 -25 34 -22 56 6 10 14 11 13 6 -6 -4 -17
-1 -23 11 -23 9 0 16 5 16 12 0 6 3 8 6 5 4 -4 1 -14 -6 -22 -22 -27 4 -41 29
-16 12 12 24 20 29 20 4 -1 13 9 19 22 13 25 17 20 13 -16 -2 -19 -1 -19 22 2
23 22 24 22 24 2 0 -12 -9 -22 -23 -25 -14 -4 -23 -14 -23 -26 0 -10 4 -17 9
-14 4 3 16 -1 27 -8 13 -10 24 -11 41 -3 16 7 27 6 38 -3 11 -9 19 -10 23 -3
7 10 61 28 76 24 4 -1 14 3 21 9 10 8 14 7 18 -2 3 -8 8 -3 14 12 12 29 -3 60
-29 60 -12 0 -19 11 -24 35 -5 26 -11 35 -28 36 -15 1 -16 3 -5 6 27 7 0 51
-33 55 -15 3 -25 1 -22 -3 2 -4 -1 -11 -7 -14 -6 -4 -13 2 -16 14 -5 21 -27
28 -37 12 -3 -5 -15 -7 -26 -4 -11 3 -17 10 -14 15 9 14 -16 58 -33 58 -7 0
-13 -4 -13 -10 0 -5 5 -10 10 -10 6 0 10 -7 10 -15 0 -23 -19 -18 -30 8 -7 18
-9 19 -9 4 -1 -10 -8 -26 -18 -35 -15 -16 -16 -15 -11 10 4 20 1 27 -11 27 -9
0 -31 1 -49 1 -19 1 -30 5 -26 12 4 5 19 7 35 4 25 -5 29 -3 29 18 0 13 7 29
15 36 10 8 15 9 15 2 0 -6 10 -17 23 -23 18 -9 20 -9 10 1 -7 7 -9 25 -6 41 4
22 2 29 -11 29 -19 0 -21 -16 -3 -23 9 -4 9 -6 0 -6 -6 -1 -19 9 -27 21 -14
20 -14 22 6 32 12 6 22 19 24 29 1 10 11 30 21 45 10 15 23 39 30 55 7 15 17
27 23 27 12 0 13 -17 1 -25 -5 -3 -12 -18 -16 -34 -3 -16 -13 -32 -21 -35 -14
-5 -20 -47 -8 -59 3 -3 24 13 46 36 39 41 40 43 34 96 -4 36 -2 58 6 69 11 13
9 14 -12 7 -14 -4 -33 -17 -42 -29 -10 -11 -18 -15 -18 -8 0 8 -9 10 -27 6
-41 -10 -45 -14 -32 -30 12 -14 8 -108 -5 -121 -13 -14 -20 9 -7 29 7 11 9 18
4 15 -5 -3 -15 -2 -21 2 -10 6 -8 13 6 31 18 22 18 26 5 47 -19 28 -44 29 -68
3 -10 -12 -24 -19 -31 -16 -6 2 -21 -4 -32 -15 -27 -25 -52 -24 -52 1 0 11 5
20 10 20 6 0 10 7 10 16 0 13 7 15 34 10 20 -4 37 -2 41 4 3 5 -1 10 -10 10
-8 0 -24 6 -35 12 -16 11 -22 9 -33 -6 -10 -13 -16 -15 -21 -8 -4 7 -5 16 -2
21 6 10 -33 48 -54 53 -8 1 -15 -2 -15 -7 0 -6 7 -10 16 -9 10 0 15 -5 13 -11
-8 -20 -46 -10 -59 15 -7 13 -10 40 -8 61 5 35 4 38 -23 41 -50 6 -51 88 -2
107 l23 9 -27 12 c-26 12 -46 45 -34 57 3 3 -1 17 -8 32 -8 14 -11 41 -9 58 6
39 -15 53 -52 33 -22 -12 -45 -7 -45 8 0 4 20 32 45 62 25 30 45 59 45 65 0 6
-14 27 -31 48 -32 39 -33 64 -2 99 25 28 12 53 -28 54 -19 0 -41 4 -49 9 -8 5
-18 2 -26 -9 -12 -17 -13 -16 -23 3 -6 11 -11 26 -11 34 0 28 -76 39 -86 12z
m106 -646 c0 -6 9 -8 23 -4 19 5 18 3 -8 -20 -16 -14 -36 -23 -42 -20 -7 2
-13 0 -13 -5 0 -6 -5 -10 -12 -10 -6 0 -4 7 5 18 10 10 17 26 17 35 0 9 7 17
15 17 8 0 15 -5 15 -11z m-88 -41 c-7 -7 -12 -8 -12 -2 0 14 12 26 19 19 2 -3
-1 -11 -7 -17z m-242 -62 c0 -3 -4 -8 -10 -11 -5 -3 -10 -1 -10 4 0 6 5 11 10
11 6 0 10 -2 10 -4z m260 -16 c-8 -5 -19 -10 -25 -10 -5 0 -3 5 5 10 8 5 20
10 25 10 6 0 3 -5 -5 -10z m15 -30 c-3 -5 -13 -10 -21 -10 -8 0 -12 5 -9 10 3
6 13 10 21 10 8 0 12 -4 9 -10z m-15 -31 c0 -5 4 -8 9 -4 5 3 12 1 16 -5 4 -6
11 -8 16 -5 5 4 9 1 9 -4 0 -6 -7 -11 -15 -11 -8 0 -15 -4 -15 -10 0 -16 40
-12 46 5 4 8 10 12 15 9 14 -8 11 -24 -4 -24 -8 0 -30 -12 -50 -27 -39 -30
-53 -83 -22 -83 18 0 20 26 3 34 -10 4 -9 7 2 15 8 5 20 10 25 11 6 1 20 10
31 21 14 13 24 17 29 10 3 -6 11 -11 16 -11 6 0 8 4 5 9 -4 5 3 7 14 4 24 -6
26 -21 5 -29 -8 -4 -15 -13 -15 -21 0 -8 -4 -12 -9 -8 -13 7 -24 -12 -15 -26
5 -8 10 -6 16 5 5 9 15 16 22 16 7 0 18 11 24 25 10 21 15 24 31 16 20 -11 35
-91 16 -88 -5 1 -9 -5 -7 -14 3 -21 -33 -53 -52 -46 -17 7 -31 -23 -15 -33 6
-4 20 -5 30 -3 10 3 19 0 19 -6 0 -6 -8 -11 -17 -12 -10 0 -31 -2 -46 -3 -21
-1 -29 3 -33 21 -7 26 -22 30 -30 8 -4 -8 -10 -15 -16 -15 -5 0 -6 5 -3 11 4
6 -2 13 -14 16 -11 3 -19 9 -16 13 3 5 1 11 -5 15 -5 3 -10 -1 -10 -9 0 -9 -4
-16 -8 -16 -5 0 -14 -11 -20 -24 -8 -19 -8 -26 1 -30 9 -3 8 -7 -3 -15 -18
-12 -32 -4 -28 17 1 10 0 17 -4 17 -3 0 -18 10 -31 23 l-25 24 -7 -32 c-5 -24
-3 -35 12 -46 17 -13 17 -14 -2 -7 -39 12 -46 23 -30 46 17 24 20 67 5 67 -5
0 -1 16 10 36 11 19 18 39 16 43 -3 4 6 15 19 25 13 10 27 31 30 47 7 31 15
35 31 19 8 -8 15 -5 25 7 7 10 9 15 5 11 -11 -10 -38 11 -30 23 7 13 44 11 44
-2z m407 -76 c-6 -13 -16 -23 -24 -23 -17 0 -17 15 2 33 13 13 13 16 0 27 -8
7 -15 17 -15 24 0 6 11 -1 23 -14 20 -20 22 -29 14 -47z m-597 43 c0 -3 -4 -8
-10 -11 -5 -3 -10 -1 -10 4 0 6 5 11 10 11 6 0 10 -2 10 -4z m555 -17 c11 -17
-1 -21 -15 -4 -8 9 -8 15 -2 15 6 0 14 -5 17 -11z m287 -21 c-7 -7 -12 -8 -12
-2 0 6 3 14 7 17 3 4 9 5 12 2 2 -3 -1 -11 -7 -17z m88 -37 c0 -5 -7 -11 -14
-14 -10 -4 -13 -1 -9 9 6 15 23 19 23 5z m-170 -11 c0 -5 -4 -10 -10 -10 -5 0
-10 5 -10 10 0 6 5 10 10 10 6 0 10 -4 10 -10z m-770 -4 c0 -3 -4 -8 -10 -11
-5 -3 -10 -1 -10 4 0 6 5 11 10 11 6 0 10 -2 10 -4z m579 -10 c8 -10 9 -16 1
-21 -20 -12 -11 -53 13 -60 53 -15 67 -27 56 -48 -9 -15 -8 -18 1 -12 10 6 11
1 6 -19 -7 -28 2 -34 22 -14 7 7 12 8 12 4 0 -5 7 -3 15 4 8 7 12 16 9 21 -3
5 2 9 10 9 9 0 16 -7 16 -15 0 -8 9 -15 20 -15 11 0 20 -5 20 -11 0 -6 -15 -9
-35 -8 -27 3 -39 -2 -51 -19 -9 -13 -22 -21 -30 -18 -7 3 -20 -5 -28 -16 -9
-12 -19 -19 -22 -15 -4 4 1 16 11 27 10 11 13 20 7 20 -7 0 -12 -4 -12 -10 0
-5 -4 -10 -10 -10 -17 0 -53 -41 -43 -50 4 -5 25 -3 46 5 32 11 40 11 52 -1 7
-8 18 -14 24 -14 6 0 11 -7 11 -16 0 -11 6 -15 20 -11 11 3 20 1 20 -3 0 -5
-9 -12 -20 -15 -25 -8 -26 -20 -2 -35 15 -10 14 -11 -8 -6 -15 3 -31 -1 -43
-12 -18 -16 -20 -16 -32 1 -6 9 -19 17 -28 17 -22 0 -31 18 -17 35 8 10 9 15
2 15 -6 0 -14 -4 -17 -10 -3 -5 -13 -10 -21 -10 -8 0 -12 5 -9 10 3 6 -3 10
-14 10 -29 0 -26 22 7 61 19 24 22 31 10 26 -21 -8 -23 -1 -4 18 10 10 16 11
24 3 14 -14 17 -11 26 19 7 21 5 22 -25 16 -24 -4 -30 -3 -25 6 5 7 14 10 22
7 8 -3 14 1 14 10 0 8 4 12 10 9 17 -11 40 9 30 25 -8 12 -10 12 -10 1 0 -7
-6 -11 -14 -8 -8 3 -16 1 -18 -5 -5 -15 -28 -1 -28 17 0 7 8 16 18 18 13 4 11
5 -5 6 -21 1 -34 21 -15 21 5 0 7 18 6 40 -2 42 6 50 25 26z m-603 -58 c-7 -5
-7 -8 2 -8 9 0 4 -12 -13 -32 -22 -26 -25 -34 -13 -42 17 -14 12 -46 -8 -46
-16 0 -19 -21 -4 -36 5 -5 6 -15 0 -24 -8 -13 -12 -13 -27 3 -14 14 -15 21 -6
36 14 23 6 91 -11 88 -6 -1 -12 12 -14 28 l-3 30 20 -25 c16 -20 22 -22 34
-12 9 8 13 21 9 34 -3 14 1 26 14 35 16 12 19 11 25 -4 3 -10 1 -21 -5 -25z
m-51 -6 c-8 -8 -25 10 -25 26 0 13 2 13 14 -4 8 -10 13 -21 11 -22z m605 -16
c0 -2 -7 -6 -15 -10 -8 -3 -15 -1 -15 4 0 6 7 10 15 10 8 0 15 -2 15 -4z
m-505 -26 c3 -5 1 -10 -4 -10 -6 0 -11 5 -11 10 0 6 2 10 4 10 3 0 8 -4 11
-10z m489 -31 c-31 -12 -39 -10 -19 5 11 8 24 12 29 8 5 -3 1 -9 -10 -13z
m183 5 c-3 -3 -12 -4 -19 -1 -8 3 -5 6 6 6 11 1 17 -2 13 -5z m-583 -40 c3 -8
2 -12 -4 -9 -6 3 -10 10 -10 16 0 14 7 11 14 -7z m416 -4 c0 -5 -5 -10 -11
-10 -5 0 -7 5 -4 10 3 6 8 10 11 10 2 0 4 -4 4 -10z m-445 -60 c3 -5 1 -10 -4
-10 -6 0 -11 5 -11 10 0 6 2 10 4 10 3 0 8 -4 11 -10z m351 -57 c-11 -11 -19
6 -11 24 8 17 8 17 12 0 3 -10 2 -21 -1 -24z m309 27 c4 -6 -5 -10 -19 -10
-14 0 -26 5 -26 10 0 6 9 10 19 10 11 0 23 -4 26 -10z m120 -20 c-3 -5 -11
-10 -16 -10 -6 0 -7 5 -4 10 3 6 11 10 16 10 6 0 7 -4 4 -10z m-548 -36 c-3
-3 -12 -4 -19 -1 -8 3 -5 6 6 6 11 1 17 -2 13 -5z m-34 -26 c2 -7 -2 -21 -10
-30 -11 -12 -12 -21 -5 -35 8 -13 7 -22 -5 -35 -13 -15 -12 -16 10 -14 26 3
64 -29 47 -39 -5 -3 -6 -13 -3 -22 4 -11 3 -14 -5 -9 -7 4 -12 15 -12 25 0 22
-43 34 -59 18 -6 -6 -12 -8 -12 -4 -1 4 -3 10 -4 15 -2 4 -6 17 -10 30 -8 23
-29 30 -40 12 -10 -17 6 -34 17 -19 8 11 9 10 4 -3 -7 -24 3 -48 19 -48 8 0
17 -4 20 -10 3 -5 -3 -10 -13 -10 -37 0 -81 104 -61 143 9 16 12 15 37 -13 26
-29 52 -40 52 -21 0 21 -13 41 -27 41 -25 0 19 36 49 39 3 1 8 -5 11 -11z m42
-18 c1 -11 -2 -20 -7 -20 -4 0 -8 12 -8 27 0 30 13 24 15 -7z m10 -41 c11 3
109 -17 140 -29 14 -5 21 -18 23 -39 2 -25 -2 -33 -23 -41 -14 -5 -25 -14 -25
-20 0 -18 -20 -11 -21 8 0 15 -1 15 -8 -2 -5 -14 -10 -16 -15 -7 -4 7 -20 11
-34 9 -23 -3 -27 1 -27 22 0 14 -10 33 -23 44 -15 12 -21 24 -17 37 4 13 2 19
-9 19 -9 0 -16 5 -16 10 0 7 8 6 23 -2 12 -7 27 -11 32 -9z m388 -4 c-3 -9 -8
-14 -10 -11 -3 3 -2 9 2 15 9 16 15 13 8 -4z m132 -15 c-3 -5 -11 -10 -16 -10
-6 0 -7 5 -4 10 3 6 11 10 16 10 6 0 7 -4 4 -10z m-1135 -63 c0 -17 -20 -37
-37 -37 -19 0 -16 27 5 39 23 14 32 13 32 -2z m942 -79 c-7 -7 -12 -8 -12 -2
0 14 12 26 19 19 2 -3 -1 -11 -7 -17z m-209 -49 c-21 -22 -39 -35 -41 -29 -4
11 55 69 71 70 4 0 -9 -18 -30 -41z m158 -29 c5 0 9 -4 9 -10 0 -5 -7 -10 -15
-10 -8 0 -15 5 -15 10 0 7 -8 6 -22 -1 -21 -11 -22 -11 -9 5 8 9 21 14 28 11
8 -3 19 -5 24 -5z m-161 -211 c0 -5 5 -9 10 -9 6 0 10 8 10 17 0 13 3 14 12 5
7 -7 22 -12 35 -12 47 0 40 -45 -21 -122 -25 -33 -31 -36 -55 -27 -14 6 -50
11 -80 12 -42 1 -59 6 -77 24 -13 13 -30 23 -39 23 -15 0 -21 30 -9 43 3 3 23
-5 44 -18 32 -20 39 -22 44 -9 4 10 13 13 32 8 23 -6 26 -4 21 9 -3 9 1 29 10
45 12 22 22 27 40 24 13 -2 23 -8 23 -13z"/>
<path d="M725 1341 c-10 -17 12 -21 25 -6 10 12 10 15 -3 15 -9 0 -18 -4 -22
-9z"/>
<path d="M960 1305 c0 -8 5 -15 10 -15 6 0 10 7 10 15 0 8 -4 15 -10 15 -5 0
-10 -7 -10 -15z"/>
<path d="M727 1293 c-12 -12 -7 -41 8 -47 8 -3 15 -2 15 2 0 4 3 17 6 30 5 15
2 22 -8 22 -8 0 -18 -3 -21 -7z"/>
<path d="M661 1277 c-18 -18 -13 -71 9 -90 24 -20 30 -21 30 -5 0 6 8 20 17
30 15 16 15 18 1 13 -9 -4 -19 -2 -23 4 -3 6 -1 11 4 11 6 0 11 8 11 19 0 22
-33 34 -49 18z"/>
<path d="M830 1271 c0 -5 5 -13 10 -16 6 -3 10 -2 10 4 0 5 -4 13 -10 16 -5 3
-10 2 -10 -4z"/>
<path d="M900 1240 c0 -5 5 -10 10 -10 6 0 10 5 10 10 0 6 -4 10 -10 10 -5 0
-10 -4 -10 -10z"/>
<path d="M830 1210 c0 -5 5 -10 11 -10 5 0 7 5 4 10 -3 6 -8 10 -11 10 -2 0
-4 -4 -4 -10z"/>
<path d="M1230 981 c-14 -27 -13 -30 10 -24 27 7 31 15 14 31 -11 10 -15 8
-24 -7z"/>
<path d="M912 864 c-11 -12 -9 -14 14 -14 24 0 26 -3 21 -30 -5 -25 -3 -30 12
-30 14 0 17 6 13 25 -2 15 0 25 7 25 7 0 9 -4 6 -10 -3 -5 1 -10 9 -10 9 0 16
-7 16 -16 0 -8 4 -13 10 -9 5 3 7 12 3 20 -3 8 -1 15 5 15 5 0 12 6 15 13 4
10 -3 12 -25 9 -17 -3 -33 0 -37 5 -11 18 -55 22 -69 7z"/>
<path d="M1848 2123 c-9 -2 -21 -17 -27 -34 -5 -16 -14 -29 -18 -30 -57 -6
-119 -5 -123 2 -3 5 -17 10 -30 11 -23 3 -25 -1 -30 -54 -6 -61 -24 -95 -36
-65 -9 24 -26 21 -47 -8 -18 -25 -18 -25 7 -35 16 -6 28 -20 32 -37 9 -38 21
-51 54 -58 21 -5 29 -13 34 -36 3 -17 10 -28 16 -24 5 3 10 -3 10 -14 0 -15 6
-21 24 -21 13 0 27 -7 30 -16 6 -15 8 -15 26 1 26 24 25 29 -10 42 -28 11 -42
33 -20 33 6 0 10 7 10 15 0 9 -9 15 -24 15 -39 0 -40 17 -4 53 59 59 63 60 94
41 28 -19 30 -18 95 64 5 6 19 12 29 12 27 0 27 -53 0 -87 -11 -14 -20 -31
-20 -37 0 -6 -12 -24 -26 -39 -24 -26 -25 -29 -10 -52 25 -39 50 -47 69 -24 9
10 24 19 32 19 8 0 15 4 15 9 0 17 30 40 45 35 22 -9 18 -26 -12 -60 -69 -77
-65 -66 -43 -109 11 -22 20 -49 20 -62 0 -12 5 -25 10 -28 6 -4 19 -23 30 -44
10 -21 28 -41 40 -44 43 -11 18 -67 -41 -91 -35 -15 -37 -14 -42 5 -3 12 -10
18 -16 14 -8 -4 -8 2 -1 21 8 19 7 30 -1 41 -7 8 -11 40 -10 78 2 56 0 65 -15
65 -10 0 -26 -8 -36 -17 -11 -10 -39 -18 -66 -20 -26 -1 -56 -5 -68 -7 -13 -4
-29 3 -44 16 -13 12 -32 24 -43 25 -10 2 -25 10 -34 19 -14 13 -13 14 11 8 33
-8 36 13 4 25 -16 7 -26 5 -34 -5 -6 -7 -14 -11 -18 -7 -4 4 -4 0 0 -10 3 -10
1 -17 -5 -17 -6 0 -11 5 -11 10 0 6 -7 10 -15 10 -17 0 -20 -16 -5 -25 15 -9
2 -25 -15 -18 -8 3 -15 13 -15 23 0 10 -7 20 -15 24 -8 3 -15 12 -15 21 0 9 7
18 15 21 8 4 15 10 15 15 0 10 -29 7 -47 -4 -9 -6 -13 -1 -13 13 0 13 -8 24
-19 27 -11 3 -17 11 -15 18 3 7 -2 15 -11 19 -10 3 -15 12 -11 21 4 11 -1 15
-17 15 -17 0 -28 -13 -48 -53 -14 -29 -31 -51 -38 -49 -9 2 -11 -3 -7 -13 9
-25 -16 -43 -54 -38 -30 4 -33 2 -20 -9 20 -18 22 -35 5 -42 -8 -3 -15 0 -15
6 0 7 -4 7 -14 -1 -8 -6 -18 -11 -22 -10 -19 3 -34 -1 -34 -11 0 -5 6 -7 14
-4 9 3 17 -3 21 -15 3 -12 11 -21 16 -21 6 0 7 5 4 10 -3 6 5 14 19 19 13 6
27 19 31 30 10 33 23 24 27 -19 2 -26 -1 -41 -9 -44 -22 -9 -15 -29 9 -23 12
3 30 2 40 -4 15 -8 18 -6 18 11 0 11 5 20 11 20 8 0 9 -11 5 -31 -3 -17 -6
-35 -6 -40 0 -5 -7 -9 -15 -9 -8 0 -15 -5 -15 -10 0 -19 53 -1 83 27 l30 28
-6 -42 c-4 -32 -2 -40 8 -37 8 3 16 12 19 20 3 9 10 12 16 9 5 -3 10 3 10 14
0 12 -4 21 -9 21 -5 0 -12 11 -15 25 -7 29 -21 32 -34 8 -9 -15 -11 -15 -28 2
-16 16 -16 18 -2 13 10 -4 23 1 34 13 16 18 16 19 -2 20 -12 0 -8 4 11 10 17
5 31 5 33 0 1 -4 14 -6 27 -3 15 2 25 0 25 -7 0 -13 83 -3 88 11 5 13 22 10
22 -5 0 -7 9 -18 20 -25 26 -16 27 -37 1 -23 -18 10 -31 6 -31 -11 0 -5 12
-14 26 -20 19 -9 24 -18 22 -37 -4 -38 8 -51 41 -45 16 4 32 1 35 -5 4 -6 29
-11 56 -11 39 0 52 -4 60 -20 6 -11 22 -23 35 -26 20 -5 25 -12 23 -35 -1 -15
6 -36 15 -47 15 -17 16 -21 3 -31 -22 -18 -116 -21 -116 -3 0 9 -7 11 -19 7
-15 -4 -20 0 -23 17 -2 17 -10 23 -28 23 -18 0 -24 5 -22 17 2 12 -2 16 -13
12 -8 -3 -15 -10 -15 -16 0 -5 -4 -7 -9 -4 -12 8 -42 -4 -36 -14 5 -8 -27 -45
-47 -53 -10 -4 -10 -8 2 -16 10 -7 17 -7 21 1 4 6 16 7 29 3 20 -6 21 -9 7
-17 -21 -11 -22 -28 -2 -28 8 0 15 -4 15 -10 0 -5 7 -10 15 -10 9 0 15 -9 15
-24 0 -27 15 -42 25 -26 3 5 13 10 21 10 11 0 13 -6 9 -20 -7 -22 5 -26 22 -9
6 6 17 8 24 4 8 -6 4 -12 -15 -22 -21 -11 -24 -16 -14 -27 14 -14 35 -10 56
11 19 19 30 16 34 -8 8 -56 68 -44 68 13 0 25 3 28 20 23 24 -8 26 3 4 19 -16
12 -14 23 19 93 5 12 7 33 3 47 -6 24 -4 26 28 26 25 0 43 -8 64 -30 17 -16
37 -30 44 -30 21 0 68 60 75 94 8 42 21 56 50 56 45 0 63 17 57 53 -3 17 -6
41 -7 53 -1 11 -9 29 -17 39 -8 9 -16 36 -17 58 -3 35 -10 48 -45 79 -61 53
-68 51 -82 -14 -5 -24 -12 -28 -39 -28 -18 0 -43 -7 -55 -16 -28 -19 -39 -12
-51 34 -16 57 -16 57 52 55 60 -2 65 -1 85 27 28 38 28 52 -5 103 -41 63 -53
87 -53 107 0 10 -9 22 -20 25 -11 3 -20 13 -20 21 0 8 -11 19 -24 24 -29 10
-53 44 -71 97 -18 52 -72 81 -127 66z m212 -423 c0 -11 -7 -20 -15 -20 -15 0
-21 21 -8 33 12 13 23 7 23 -13z m-320 -250 c0 -5 -5 -10 -11 -10 -5 0 -7 5
-4 10 3 6 8 10 11 10 2 0 4 -4 4 -10z m-13 -208 c-9 -2 -15 -7 -12 -12 3 -5 1
-11 -5 -15 -11 -7 -13 5 -4 29 3 9 12 12 22 8 16 -6 15 -7 -1 -10z m80 -18
c-3 -3 -12 -4 -19 -1 -8 3 -5 6 6 6 11 1 17 -2 13 -5z"/>
<path d="M1355 1980 c-3 -5 -2 -10 4 -10 5 0 13 5 16 10 3 6 2 10 -4 10 -5 0
-13 -4 -16 -10z"/>
<path d="M1427 1944 c7 -18 54 -16 61 4 2 8 -8 12 -32 12 -28 0 -34 -3 -29
-16z"/>
<path d="M1050 1831 c0 -5 7 -11 15 -15 9 -3 15 0 15 9 0 8 -7 15 -15 15 -8 0
-15 -4 -15 -9z"/>
<path d="M680 1819 c0 -5 5 -7 10 -4 6 3 10 8 10 11 0 2 -4 4 -10 4 -5 0 -10
-5 -10 -11z"/>
<path d="M1058 1743 c-42 -11 -11 -37 45 -39 38 -1 56 9 36 22 -8 4 -7 9 2 15
15 9 -51 11 -83 2z"/>
<path d="M665 1720 c-3 -5 -2 -10 4 -10 5 0 13 5 16 10 3 6 2 10 -4 10 -5 0
-13 -4 -16 -10z"/>
<path d="M1630 1720 c0 -5 4 -10 9 -10 6 0 13 5 16 10 3 6 -1 10 -9 10 -9 0
-16 -4 -16 -10z"/>
<path d="M1186 1691 c-4 -5 0 -12 6 -15 7 -3 3 -3 -8 -1 -18 5 -24 -1 -33 -26
-6 -18 -11 -33 -11 -33 0 -9 40 2 51 13 11 13 11 14 -5 8 -12 -5 -16 -3 -13 5
2 7 9 12 15 11 14 -3 35 24 27 37 -8 12 -22 13 -29 1z"/>
<path d="M1680 1692 c0 -5 7 -17 15 -28 15 -19 20 -8 9 20 -6 17 -24 22 -24 8z"/>
<path d="M1095 1670 c3 -5 8 -10 11 -10 2 0 4 5 4 10 0 6 -5 10 -11 10 -5 0
-7 -4 -4 -10z"/>
<path d="M1746 1664 c-9 -22 -8 -24 9 -24 8 0 15 6 15 14 0 22 -17 28 -24 10z"/>
<path d="M1815 1669 c-4 -6 -5 -13 -2 -16 7 -7 27 6 27 18 0 12 -17 12 -25 -2z"/>
<path d="M1110 1599 c0 -5 5 -7 10 -4 6 3 10 8 10 11 0 2 -4 4 -10 4 -5 0 -10
-5 -10 -11z"/>
<path d="M1140 1550 c0 -5 5 -10 10 -10 6 0 10 5 10 10 0 6 -4 10 -10 10 -5 0
-10 -4 -10 -10z"/>
<path d="M1623 1533 c-7 -2 -13 -9 -13 -15 0 -7 5 -7 13 1 8 6 17 8 20 4 4 -3
7 -1 7 5 0 13 -7 14 -27 5z"/>
<path d="M1163 1503 c-22 -8 -14 -23 13 -23 15 0 24 5 22 12 -5 14 -18 18 -35
11z"/>
<path d="M1220 1499 c1 -15 23 -49 33 -49 10 0 -5 39 -19 51 -11 9 -14 8 -14
-2z"/>
<path d="M1285 1465 c17 -14 32 -20 34 -14 4 13 -28 38 -49 38 -9 0 -4 -9 15
-24z"/>
<path d="M1577 1483 c-12 -12 -7 -22 8 -17 8 4 15 10 15 15 0 11 -14 12 -23 2z"/>
<path d="M1630 1470 c0 -5 5 -10 10 -10 6 0 10 5 10 10 0 6 -4 10 -10 10 -5 0
-10 -4 -10 -10z"/>
<path d="M1200 1455 c7 -9 15 -13 17 -11 7 7 -7 26 -19 26 -6 0 -6 -6 2 -15z"/>
<path d="M1410 1420 c0 -5 4 -10 9 -10 6 0 13 5 16 10 3 6 -1 10 -9 10 -9 0
-16 -4 -16 -10z"/>
<path d="M1605 1407 c-7 -17 16 -46 38 -47 12 0 8 19 -7 27 -7 4 -15 15 -18
23 -5 12 -7 12 -13 -3z"/>
<path d="M1798 1349 c-24 -26 -23 -30 10 -27 25 3 27 0 26 -29 -1 -18 2 -33 7
-33 5 0 9 8 9 18 0 9 6 28 13 42 11 23 10 26 -11 38 -30 15 -33 15 -54 -9z"/>
<path d="M1563 1353 c-7 -3 -13 -11 -13 -19 0 -9 4 -13 9 -9 16 9 22 -12 11
-39 -6 -16 -15 -24 -23 -20 -8 3 -17 -2 -20 -10 -7 -17 8 -32 17 -17 3 5 14 7
25 4 11 -3 21 2 24 11 4 9 2 16 -4 16 -6 0 -6 7 1 19 21 41 6 76 -27 64z"/>
<path d="M1665 1310 c-10 -11 -13 -20 -7 -20 7 0 12 5 12 10 0 6 7 10 15 10 8
0 15 -5 15 -12 0 -9 3 -9 12 0 10 10 10 15 -2 22 -21 13 -25 13 -45 -10z"/>
<path d="M1588 1222 c-18 -4 -25 -22 -9 -22 5 0 11 -9 14 -20 8 -31 23 -23 21
11 -2 35 -3 37 -26 31z"/>
<path d="M1507 1181 c2 -7 -2 -20 -8 -27 -7 -8 -7 -14 -1 -14 5 0 15 7 22 15
7 8 19 15 26 15 16 0 19 16 4 25 -5 3 -10 1 -10 -4 0 -12 -26 -15 -33 -3 -2 4
-2 1 0 -7z"/>
<path d="M2287 1099 c-10 -6 -53 -11 -97 -12 -70 -2 -80 -4 -84 -22 -14 -51 4
-115 27 -97 16 13 79 3 74 -12 -3 -6 -10 -10 -16 -8 -7 1 -20 -2 -30 -7 -12
-7 -22 -6 -30 2 -15 15 -27 -2 -36 -51 -7 -37 7 -62 34 -62 22 0 41 -19 41
-41 0 -9 6 -22 14 -28 12 -10 22 -5 55 27 22 21 43 52 47 68 7 31 31 79 52
105 17 22 19 114 2 133 -14 18 -28 20 -53 5z"/>
<path d="M1627 1094 c-8 -8 3 -34 14 -34 11 0 12 27 0 34 -4 3 -11 3 -14 0z"/>
<path d="M1680 1089 c0 -5 5 -7 10 -4 6 3 10 8 10 11 0 2 -4 4 -10 4 -5 0 -10
-5 -10 -11z"/>
<path d="M1516 1071 c-4 -5 -2 -12 3 -15 5 -4 12 -2 15 3 4 5 2 12 -3 15 -5 4
-12 2 -15 -3z"/>
<path d="M1751 1004 c0 -11 3 -14 6 -6 3 7 2 16 -1 19 -3 4 -6 -2 -5 -13z"/>
<path d="M634 995 c-3 -8 -3 -19 1 -25 11 -18 25 -11 25 15 0 27 -17 34 -26
10z"/>
<path d="M1790 973 c-8 -16 -15 -35 -15 -43 -1 -8 -6 -27 -13 -42 -6 -15 -14
-50 -17 -79 l-6 -52 26 17 c15 10 33 15 40 12 8 -3 15 -1 17 5 5 14 57 -13 63
-33 10 -28 -5 -64 -35 -86 -41 -31 -78 -112 -51 -112 6 0 13 5 16 10 7 12 45
14 45 3 0 -5 13 -16 29 -25 26 -14 30 -23 33 -64 l3 -49 45 -8 c101 -17 155
17 165 105 l7 57 -37 15 c-51 22 -95 55 -104 79 -6 15 1 30 31 61 42 46 49 81
18 91 -11 4 -35 20 -52 36 -18 16 -42 29 -54 29 -37 0 -52 10 -47 30 3 11 -4
30 -15 44 l-19 25 -13 -24 c-21 -39 -46 -31 -41 13 3 20 -5 14 -19 -15z m186
-312 c-22 -21 -46 0 -26 24 10 12 16 13 27 3 12 -10 12 -13 -1 -27z"/>
<path d="M1685 980 c4 -6 11 -8 16 -5 14 9 11 15 -7 15 -8 0 -12 -5 -9 -10z"/>
<path d="M1720 915 c-7 -9 -11 -18 -8 -20 3 -3 11 1 18 10 7 9 11 18 8 20 -3
3 -11 -1 -18 -10z"/>
<path d="M1306 841 c-11 -4 -15 -10 -10 -12 16 -9 37 -4 42 9 4 13 -4 14 -32
3z"/>
<path d="M1402 799 c2 -6 8 -10 13 -10 5 0 11 4 13 10 2 6 -4 11 -13 11 -9 0
-15 -5 -13 -11z"/>
<path d="M522 769 c2 -7 10 -15 17 -17 8 -3 12 1 9 9 -2 7 -10 15 -17 17 -8 3
-12 -1 -9 -9z"/>
<path d="M629 749 c-9 -17 -8 -23 2 -30 22 -14 26 -11 21 21 -5 36 -8 37 -23
9z"/>
<path d="M1405 750 c-3 -5 -1 -10 4 -10 6 0 11 5 11 10 0 6 -2 10 -4 10 -3 0
-8 -4 -11 -10z"/>
<path d="M690 741 c0 -6 5 -13 10 -16 6 -3 10 1 10 9 0 9 -4 16 -10 16 -5 0
-10 -4 -10 -9z"/>
<path d="M755 711 c17 -34 35 -49 35 -29 -1 14 -34 58 -44 58 -4 0 0 -13 9
-29z"/>
<path d="M1373 691 c-16 -16 -27 -18 -63 -11 -52 10 -70 4 -70 -21 0 -22 4
-23 30 -9 16 8 18 8 14 -5 -4 -8 -11 -15 -18 -15 -11 0 -46 -35 -46 -46 0 -3
7 -3 16 0 12 4 15 2 10 -9 -4 -11 1 -15 22 -14 15 0 21 3 15 6 -15 5 -18 23
-5 23 5 0 14 -11 20 -25 8 -17 20 -25 37 -25 15 0 24 -4 20 -10 -3 -5 -15 -10
-26 -10 -10 0 -19 -6 -19 -14 0 -25 54 -17 67 10 6 13 7 24 2 24 -5 0 -9 5 -9
10 0 6 14 10 30 10 17 0 30 -5 30 -12 0 -9 3 -9 9 1 5 8 16 11 25 8 20 -8 21
-60 1 -77 -38 -31 -4 -81 44 -65 11 3 22 1 26 -5 9 -15 22 -12 27 8 3 11 26
23 65 34 61 18 83 39 63 63 -6 7 -22 16 -35 19 -16 4 -26 16 -30 35 -3 16 -13
32 -21 35 -8 3 -14 12 -14 19 0 21 -34 47 -62 47 -18 0 -28 7 -32 23 -6 22 -7
22 -19 2 -16 -27 -84 -29 -79 -2 4 22 1 21 -25 -2z"/>
<path d="M1688 676 c-22 -16 -23 -26 -4 -26 7 0 16 9 19 20 3 11 4 20 4 20 -1
0 -10 -7 -19 -14z"/>
<path d="M1760 645 c0 -8 5 -15 10 -15 6 0 10 7 10 15 0 8 -4 15 -10 15 -5 0
-10 -7 -10 -15z"/>
<path d="M1740 399 c0 -26 -25 -42 -48 -30 -14 8 -24 6 -38 -4 -26 -19 -54
-19 -76 2 -24 21 -83 25 -117 7 -14 -8 -32 -14 -38 -14 -7 0 -13 -8 -13 -18 0
-13 8 -17 33 -17 29 0 32 -3 29 -27 -1 -16 1 -28 7 -28 19 0 19 -30 -1 -55
-24 -30 -18 -55 14 -55 13 0 29 -4 37 -9 8 -5 26 -5 43 1 18 7 33 7 41 0 25
-19 67 -20 77 -2 5 10 18 16 27 14 13 -2 33 18 71 72 28 41 52 81 52 89 0 7
-14 16 -31 20 -19 4 -38 19 -50 38 -11 19 -19 25 -19 16z"/>
</g>
</svg>
