<?xml version="1.0" standalone="no"?>
<!DOCTYPE svg PUBLIC "-//W3C//DTD SVG 20010904//EN"
 "http://www.w3.org/TR/2001/REC-SVG-20010904/DTD/svg10.dtd">
<svg version="1.0" xmlns="http://www.w3.org/2000/svg"
 width="750.000000pt" height="750.000000pt" viewBox="0 0 750.000000 750.000000"
 preserveAspectRatio="xMidYMid meet">
<metadata>
Created by potrace 1.14, written by Peter Selinger 2001-2017
</metadata>
<g transform="translate(0.000000,750.000000) scale(0.100000,-0.100000)"
fill="#000000" stroke="none">
<path d="M3655 7336 c-132 -33 -235 -127 -283 -259 -12 -32 -17 -108 -22 -307
-7 -248 -9 -271 -34 -355 -73 -244 -265 -441 -513 -526 -95 -32 -103 -33 -253
-33 -138 0 -164 3 -237 25 -139 43 -225 104 -423 294 -165 160 -180 172 -250
198 -149 57 -312 23 -423 -89 -115 -116 -148 -273 -90 -427 26 -67 39 -83 189
-237 277 -284 342 -420 331 -700 -4 -107 -9 -139 -37 -223 -83 -247 -280 -440
-525 -513 -84 -25 -108 -27 -360 -34 -148 -4 -284 -12 -300 -17 -142 -47 -252
-175 -275 -321 -31 -191 88 -383 275 -445 16 -5 152 -13 300 -17 252 -7 276
-9 360 -34 244 -73 440 -264 526 -513 33 -95 34 -102 33 -258 0 -146 -2 -167
-27 -240 -45 -135 -112 -230 -293 -416 -161 -165 -179 -189 -210 -289 -37
-120 4 -283 96 -377 100 -102 264 -148 390 -109 101 32 125 49 284 206 278
272 416 338 696 327 107 -4 139 -9 223 -37 247 -83 440 -280 513 -525 25 -84
27 -107 34 -355 5 -199 10 -275 22 -307 69 -189 255 -299 445 -264 149 27 268
132 316 275 5 17 13 150 17 296 7 247 9 271 34 355 73 244 264 440 513 526 95
33 102 34 258 33 146 0 167 -2 240 -27 133 -44 225 -109 418 -295 193 -186
233 -210 357 -219 297 -23 510 272 399 551 -20 51 -48 85 -185 226 -278 285
-342 420 -331 700 4 107 9 139 37 223 83 247 280 440 525 513 84 25 108 27
360 34 149 4 284 12 300 17 141 46 252 176 276 322 30 189 -90 383 -276 444
-16 5 -151 13 -300 17 -252 7 -276 9 -360 34 -244 73 -440 264 -526 513 -33
95 -34 102 -33 258 0 146 2 167 27 240 44 133 109 225 295 418 156 162 169
178 195 247 57 149 23 312 -89 423 -116 115 -274 148 -426 90 -66 -26 -85 -41
-245 -195 -233 -224 -334 -285 -520 -318 -100 -18 -278 -8 -368 20 -267 84
-465 280 -541 535 -25 84 -27 108 -34 355 -4 146 -12 279 -17 296 -67 203
-275 320 -478 270z m-154 -2494 c245 -88 403 -262 459 -504 12 -56 12 -220 0
-276 -71 -306 -318 -515 -626 -529 -122 -6 -178 3 -284 44 -188 73 -323 221
-396 433 -27 79 -27 301 0 380 84 246 243 396 494 467 72 20 281 11 353 -15z
m1022 -1446 c98 -29 192 -124 222 -223 65 -213 -98 -433 -319 -433 -273 1
-432 311 -271 530 86 117 232 167 368 126z"/>
</g>
</svg>
